<svg id="Group_129" data-name="Group 129" xmlns="http://www.w3.org/2000/svg" width="28.825" height="31.446" viewBox="0 0 28.825 31.446">
  <g id="fax">
    <path id="Path_49" data-name="Path 49" d="M32.235,15.384,28.046,11.66V5.932L23.238,1.125H10.227V9.51H5.51a1.574,1.574,0,0,0-1.573,1.573V31A1.574,1.574,0,0,0,5.51,32.571H32.762V16.559A1.574,1.574,0,0,0,32.235,15.384ZM10.227,30.474H6.034V11.607h4.193ZM21.757,3.221h.614L25.95,6.8v.614H21.757Zm-9.434,0H19.66V9.51H25.95v4.717H12.323ZM30.667,30.474H12.323V16.324H28.046V14.465l2.621,2.329Z" transform="translate(-3.937 -1.125)" fill="#009993"/>
    <path id="Path_50" data-name="Path 50" d="M16.313,24.188h2.1v2.1h-2.1Z" transform="translate(-4.782 -2.7)" fill="#009993"/>
    <path id="Path_51" data-name="Path 51" d="M20.813,24.188h2.1v2.1h-2.1Z" transform="translate(-5.09 -2.7)" fill="#009993"/>
    <path id="Path_52" data-name="Path 52" d="M16.313,28.688h2.1v2.1h-2.1Z" transform="translate(-4.782 -3.007)" fill="#009993"/>
    <path id="Path_53" data-name="Path 53" d="M20.813,28.688h2.1v2.1h-2.1Z" transform="translate(-5.09 -3.007)" fill="#009993"/>
    <path id="Path_54" data-name="Path 54" d="M25.313,24.188h2.1v2.1h-2.1Z" transform="translate(-5.397 -2.7)" fill="#009993"/>
    <path id="Path_55" data-name="Path 55" d="M25.313,28.688h2.1v2.1h-2.1Z" transform="translate(-5.397 -3.007)" fill="#009993"/>
    <path id="Path_56" data-name="Path 56" d="M16.313,19.688H26.795v2.1H16.313Z" transform="translate(-4.782 -2.393)" fill="#009993"/>
  </g>
</svg>
